<svg id="Capa_1" enable-background="new 0 0 512 512" height="512" viewBox="0 0 512 512" width="512" xmlns="http://www.w3.org/2000/svg"><g><g><path clip-rule="evenodd" d="m0 117.754 250.437 34.605 261.563-34.605v-46.637c0-28.765-23.566-52.302-52.33-52.302h-407.369c-28.764-.001-52.301 23.537-52.301 52.302z" fill="#eee1dc" fill-rule="evenodd"/></g><g><path clip-rule="evenodd" d="m512 440.854v-323.1h-512v323.1c0 28.794 23.537 52.332 52.301 52.332h407.369c28.764 0 52.33-23.538 52.33-52.332z" fill="#60b7ff" fill-rule="evenodd"/></g><g><path clip-rule="evenodd" d="m454.56 380.813c4.41 0 8.031-3.621 8.031-8.031v-21.318c0-4.41-3.621-8.031-8.031-8.031h-7.709c-1.372-4.818-3.271-9.433-5.636-13.755l5.402-5.403c3.125-3.125 3.125-8.235 0-11.331l-15.068-15.098c-3.125-3.125-8.235-3.125-11.36 0l-5.402 5.403c-4.322-2.365-8.907-4.264-13.754-5.636v-7.71c0-4.41-3.592-8.002-8.031-8.002h-21.318c-4.41 0-8.031 3.592-8.031 8.002v8.06c-4.672 1.402-9.14 3.329-13.345 5.695l-5.811-5.811c-3.125-3.125-8.235-3.125-11.33 0l-15.098 15.098c-3.125 3.095-3.125 8.206 0 11.331l6.162 6.162c-2.19 4.088-3.971 8.44-5.256 12.995h-8.848c-4.41 0-8.001 3.621-8.001 8.031v21.318c0 4.41 3.592 8.031 8.001 8.031h9.199c1.343 4.41 3.125 8.644 5.286 12.616l-6.541 6.541c-3.125 3.125-3.125 8.235 0 11.36l15.098 15.069c3.095 3.125 8.206 3.125 11.33 0l6.541-6.541c3.971 2.19 8.206 3.972 12.615 5.286v9.199c0 4.41 3.621 8.031 8.031 8.031h21.318c4.439 0 8.031-3.621 8.031-8.031v-8.848c4.556-1.285 8.907-3.066 13.024-5.227l6.132 6.133c3.125 3.125 8.235 3.125 11.36 0l15.068-15.069c3.125-3.125 3.125-8.235 0-11.36l-5.811-5.811c2.365-4.176 4.293-8.644 5.694-13.346h8.058zm-72.217-51.631c18.193 0 32.94 14.747 32.94 32.941s-14.747 32.941-32.94 32.941-32.94-14.747-32.94-32.941 14.747-32.941 32.94-32.941z" fill="#9d9696" fill-rule="evenodd"/></g><g><path clip-rule="evenodd" d="m382.343 395.064c18.193 0 32.94-14.747 32.94-32.941s-14.747-32.941-32.94-32.941-32.94 14.747-32.94 32.941 14.747 32.941 32.94 32.941z" fill="#eee1dc" fill-rule="evenodd"/></g><g><path clip-rule="evenodd" d="m297.482 84.112c9.14 0 16.528-7.388 16.528-16.529s-7.388-16.529-16.528-16.529-16.528 7.388-16.528 16.529 7.387 16.529 16.528 16.529z" fill="#fd4755" fill-rule="evenodd"/></g><g><path clip-rule="evenodd" d="m367.742 84.112c9.14 0 16.528-7.388 16.528-16.529s-7.388-16.529-16.528-16.529-16.528 7.388-16.528 16.529 7.387 16.529 16.528 16.529z" fill="#fdb440" fill-rule="evenodd"/></g><g><path clip-rule="evenodd" d="m438.002 84.112c9.111 0 16.528-7.388 16.528-16.529s-7.417-16.529-16.528-16.529c-9.14 0-16.558 7.388-16.558 16.529s7.418 16.529 16.558 16.529z" fill="#80d261" fill-rule="evenodd"/></g><g><path clip-rule="evenodd" d="m512 117.754v-46.637c0-28.765-23.566-52.302-52.33-52.302h-28.793c28.764 0 52.301 23.538 52.301 52.302v46.637z" fill="#cdbeb9" fill-rule="evenodd"/></g><g><path clip-rule="evenodd" d="m512 440.854v-323.1h-28.822v323.1c0 28.794-23.537 52.332-52.301 52.332h28.793c28.764 0 52.33-23.538 52.33-52.332z" fill="#22a6fe" fill-rule="evenodd"/></g><g><path clip-rule="evenodd" d="m362.953 298.169c7.505 8.294 13.783 18.865 18.397 31.043.321-.029.672-.029.993-.029 18.193 0 32.94 14.747 32.94 32.941 0 15.886-11.272 29.174-26.253 32.269-1.986 18.106-7.271 34.576-14.922 47.98h18.894c4.439 0 8.031-3.621 8.031-8.031v-8.848c4.556-1.285 8.907-3.066 13.024-5.227l6.132 6.133c3.125 3.125 8.235 3.125 11.36 0l15.068-15.069c3.125-3.125 3.125-8.235 0-11.36l-5.811-5.811c2.365-4.176 4.293-8.644 5.694-13.346h8.06c4.41 0 8.031-3.621 8.031-8.031v-21.318c0-4.41-3.621-8.031-8.031-8.031h-7.709c-1.372-4.818-3.271-9.433-5.636-13.755l5.402-5.403c3.125-3.125 3.125-8.235 0-11.331l-15.068-15.098c-3.125-3.125-8.235-3.125-11.36 0l-5.402 5.403c-4.322-2.365-8.907-4.264-13.754-5.636v-7.71c0-4.41-3.592-8.002-8.031-8.002h-21.318c-4.41 0-8.031 3.592-8.031 8.002v8.06c-.233.059-.467.147-.7.205z" fill="#746e6e" fill-rule="evenodd"/></g><g><path clip-rule="evenodd" d="m381.35 329.212c5.461 14.426 8.585 31.072 8.585 48.856 0 5.549-.321 11.009-.905 16.324 14.981-3.096 26.253-16.354 26.253-32.269 0-18.193-14.747-32.941-32.94-32.941z" fill="#cdbeb9" fill-rule="evenodd"/></g><g><path d="m448.368 188.969h-239.077c-4.301 0-7.787-3.486-7.787-7.787s3.486-7.787 7.787-7.787h239.077c4.301 0 7.787 3.486 7.787 7.787s-3.486 7.787-7.787 7.787z" fill="#746e6e"/></g><g><path d="m448.368 245.711h-239.077c-4.301 0-7.787-3.486-7.787-7.787s3.486-7.787 7.787-7.787h239.077c4.301 0 7.787 3.486 7.787 7.787 0 4.3-3.486 7.787-7.787 7.787z" fill="#746e6e"/></g><g><path d="m273.156 302.481h-92.337c-4.301 0-7.787-3.486-7.787-7.787s3.486-7.787 7.787-7.787h92.337c4.301 0 7.787 3.486 7.787 7.787s-3.486 7.787-7.787 7.787z" fill="#746e6e"/></g><g><path d="m139.644 302.481h-59.28c-4.301 0-7.787-3.486-7.787-7.787s3.486-7.787 7.787-7.787h59.28c4.301 0 7.787 3.486 7.787 7.787s-3.486 7.787-7.787 7.787z" fill="#746e6e"/></g><path d="m95.111 248.593c-4.348 0-9.53-2.19-9.53-12.626v-10.98c0-6.417-1.875-10.766-4.357-13.771 2.481-3.006 4.357-7.355 4.357-13.767v-10.98c0-10.435 5.182-12.625 9.53-12.625 4.301 0 7.787-3.486 7.787-7.787s-3.486-7.787-7.787-7.787c-12.495 0-25.104 8.72-25.104 28.2v10.98c0 4.09-.743 4.367-4.318 5.698-.818.305-1.663.62-2.524 1.018-3.903 1.806-5.604 6.434-3.798 10.337.776 1.677 2.079 2.933 3.615 3.694.059.049.132.091.225.124.009.003.017.007.026.01.045.021.093.035.139.055.811.297 1.564.646 2.316.922 3.575 1.316 4.319 1.59 4.319 5.681v10.98c0 19.48 12.609 28.2 25.104 28.2 4.301 0 7.787-3.486 7.787-7.787 0-4.303-3.486-7.789-7.787-7.789z" fill="#746e6e"/><path d="m167.517 202.918c-.846-.385-1.676-.691-2.479-.986-3.576-1.316-4.32-1.59-4.32-5.681v-10.98c0-19.48-12.608-28.2-25.104-28.2-4.301 0-7.787 3.486-7.787 7.787s3.486 7.787 7.787 7.787c4.347 0 9.529 2.19 9.529 12.626v10.98c0 6.417 1.875 10.766 4.357 13.771-2.481 3.007-4.357 7.355-4.357 13.768v10.951c0 10.435-5.182 12.625-9.529 12.625-4.301 0-7.787 3.486-7.787 7.787s3.486 7.787 7.787 7.787c12.495 0 25.104-8.72 25.104-28.2v-10.951c0-4.09.743-4.367 4.318-5.698.78-.291 2.845-1.183 2.98-1.268 1.429-.78 2.635-1.995 3.362-3.591 1.782-3.915.053-8.532-3.861-10.314z" fill="#746e6e"/><g><path d="m268.017 359.222h-188.675c-4.301 0-7.787-3.486-7.787-7.787s3.486-7.787 7.787-7.787h188.675c4.301 0 7.787 3.486 7.787 7.787s-3.486 7.787-7.787 7.787z" fill="#746e6e"/></g><g><path d="m266.995 415.992h-188.675c-4.301 0-7.787-3.486-7.787-7.787s3.486-7.787 7.787-7.787h188.675c4.301 0 7.787 3.486 7.787 7.787s-3.486 7.787-7.787 7.787z" fill="#746e6e"/></g></g></svg>