<svg height="512" viewBox="0 0 64 64" width="512" xmlns="http://www.w3.org/2000/svg"><g id="computer-files-graph-digital-data_analytics" data-name="computer-files-graph-digital-data analytics"><path d="m7 16h50a2 2 0 0 1 2 2v29a0 0 0 0 1 0 0h-54a0 0 0 0 1 0 0v-29a2 2 0 0 1 2-2z" fill="#2488ff"/><circle cx="16" cy="29" fill="#e1ecfd" r="6"/><path d="m16 23v6h-6a6 6 0 0 1 6-6z" fill="#00eed1"/><path d="m20.24 24.76-4.24 4.24v-6a5.969 5.969 0 0 1 4.24 1.76z" fill="#ec455a"/><path d="m32 9h30v34h-30z" fill="#392586"/><path d="m28 6h30v34h-30z" fill="#896ff7"/><path d="m22 57h20v4h-20z" fill="#e8e5fb"/><path d="m29 52h6v5h-6z" fill="#acabb1"/><path d="m55 11.033v25.967h-30v-34h22.964z" fill="#64c1f7"/><path d="m48 3v8h7z" fill="#48a3d2"/><path d="m31 26h4v7h-4z" fill="#f6cc4f"/><path d="m38 19h4v14h-4z" fill="#f6cc4f"/><path d="m45 15h4v18h-4z" fill="#f6cc4f"/><path d="m5 47h54a0 0 0 0 1 0 0v3a2 2 0 0 1 -2 2h-50a2 2 0 0 1 -2-2v-3a0 0 0 0 1 0 0z" fill="#e8e5fb"/><path d="m9 20h3v-2h-4a1 1 0 0 0 -1 1v4h2z" fill="#57a4ff"/><g fill="#1a6fb0"><path d="m28 6h4v2h-4z"/><path d="m28 10h6v2h-6z"/><path d="m10 38h3v2h-3z"/><path d="m15 38h7v2h-7z"/><path d="m10 42h5v2h-5z"/><path d="m17 42h5v2h-5z"/></g><path d="m28 32h24v2h-24z" fill="#f3ac3c"/><path d="m29 52h6v2h-6z" fill="#787680"/></g></svg>